<svg width="393" height="852" viewBox="0 0 393 852" fill="none" xmlns="http://www.w3.org/2000/svg">
<rect width="393" height="852" fill="#1E1E1E"/>
<g clip-path="url(#clip0_0_1)">
<rect width="393" height="852" fill="white"/>
<rect y="408" width="393" height="660" rx="50" fill="#65B7EB"/>
<path d="M75 548C75 532.536 87.536 520 103 520H290C305.464 520 318 532.536 318 548V554C318 569.464 305.464 582 290 582H103C87.536 582 75 569.464 75 554V548Z" fill="#4F5152"/>
<path d="M113.824 564V540.727H123.438C125.18 540.727 126.684 541.068 127.949 541.75C129.222 542.424 130.203 543.367 130.892 544.58C131.581 545.784 131.926 547.186 131.926 548.784C131.926 550.39 131.574 551.795 130.869 553C130.172 554.197 129.176 555.125 127.881 555.784C126.585 556.443 125.047 556.773 123.267 556.773H117.335V552.341H122.222C123.07 552.341 123.778 552.193 124.347 551.898C124.922 551.602 125.358 551.189 125.653 550.659C125.949 550.121 126.097 549.496 126.097 548.784C126.097 548.064 125.949 547.443 125.653 546.92C125.358 546.39 124.922 545.981 124.347 545.693C123.771 545.405 123.063 545.261 122.222 545.261H119.449V564H113.824ZM138.994 564.295C137.881 564.295 136.892 564.11 136.028 563.739C135.172 563.36 134.494 562.792 133.994 562.034C133.502 561.269 133.256 560.311 133.256 559.159C133.256 558.189 133.426 557.371 133.767 556.705C134.108 556.038 134.578 555.496 135.176 555.08C135.775 554.663 136.464 554.348 137.244 554.136C138.025 553.917 138.858 553.769 139.744 553.693C140.737 553.602 141.536 553.508 142.142 553.409C142.748 553.303 143.188 553.155 143.46 552.966C143.741 552.769 143.881 552.492 143.881 552.136V552.08C143.881 551.496 143.68 551.045 143.278 550.727C142.877 550.409 142.335 550.25 141.653 550.25C140.919 550.25 140.328 550.409 139.881 550.727C139.434 551.045 139.15 551.485 139.028 552.045L133.903 551.864C134.055 550.803 134.445 549.856 135.074 549.023C135.71 548.182 136.581 547.523 137.688 547.045C138.801 546.561 140.138 546.318 141.699 546.318C142.813 546.318 143.839 546.451 144.778 546.716C145.718 546.973 146.536 547.352 147.233 547.852C147.93 548.345 148.468 548.951 148.847 549.67C149.233 550.39 149.426 551.212 149.426 552.136V564H144.199V561.568H144.062C143.752 562.159 143.354 562.659 142.869 563.068C142.392 563.477 141.828 563.784 141.176 563.989C140.532 564.193 139.805 564.295 138.994 564.295ZM140.71 560.659C141.309 560.659 141.847 560.538 142.324 560.295C142.809 560.053 143.195 559.72 143.483 559.295C143.771 558.864 143.915 558.364 143.915 557.795V556.136C143.756 556.22 143.563 556.295 143.335 556.364C143.116 556.432 142.873 556.496 142.608 556.557C142.343 556.617 142.07 556.67 141.79 556.716C141.509 556.761 141.241 556.803 140.983 556.841C140.46 556.924 140.013 557.053 139.642 557.227C139.278 557.402 138.998 557.629 138.801 557.909C138.612 558.182 138.517 558.508 138.517 558.886C138.517 559.462 138.722 559.902 139.131 560.205C139.547 560.508 140.074 560.659 140.71 560.659ZM152.824 564V546.545H158.222V549.727H158.403C158.722 548.576 159.241 547.72 159.96 547.159C160.68 546.591 161.517 546.307 162.472 546.307C162.729 546.307 162.994 546.326 163.267 546.364C163.54 546.394 163.794 546.443 164.028 546.511V551.341C163.763 551.25 163.415 551.178 162.983 551.125C162.559 551.072 162.18 551.045 161.847 551.045C161.188 551.045 160.593 551.193 160.062 551.489C159.54 551.777 159.127 552.182 158.824 552.705C158.528 553.22 158.381 553.826 158.381 554.523V564H152.824ZM171.304 559.42L171.327 552.795H172.099L177.009 546.545H183.304L176.009 555.5H174.543L171.304 559.42ZM166.293 564V540.727H171.849V564H166.293ZM177.134 564L172.565 556.75L176.224 552.807L183.554 564H177.134ZM185.293 570.545V546.545H190.793V549.534H190.963C191.19 549.004 191.512 548.492 191.929 548C192.353 547.508 192.891 547.106 193.543 546.795C194.202 546.477 194.99 546.318 195.906 546.318C197.118 546.318 198.251 546.636 199.304 547.273C200.365 547.909 201.221 548.89 201.872 550.216C202.524 551.542 202.849 553.231 202.849 555.284C202.849 557.261 202.535 558.917 201.906 560.25C201.285 561.583 200.444 562.583 199.384 563.25C198.33 563.917 197.16 564.25 195.872 564.25C194.993 564.25 194.232 564.106 193.588 563.818C192.944 563.53 192.402 563.152 191.963 562.682C191.531 562.212 191.198 561.708 190.963 561.17H190.849V570.545H185.293ZM190.736 555.273C190.736 556.212 190.861 557.03 191.111 557.727C191.368 558.424 191.736 558.966 192.213 559.352C192.698 559.731 193.277 559.92 193.952 559.92C194.634 559.92 195.213 559.731 195.69 559.352C196.168 558.966 196.527 558.424 196.77 557.727C197.02 557.03 197.145 556.212 197.145 555.273C197.145 554.333 197.02 553.519 196.77 552.83C196.527 552.14 196.168 551.606 195.69 551.227C195.221 550.848 194.641 550.659 193.952 550.659C193.27 550.659 192.69 550.845 192.213 551.216C191.736 551.587 191.368 552.117 191.111 552.807C190.861 553.496 190.736 554.318 190.736 555.273ZM211.318 540.727V564H205.761V540.727H211.318ZM219.776 564.295C218.662 564.295 217.673 564.11 216.81 563.739C215.954 563.36 215.276 562.792 214.776 562.034C214.283 561.269 214.037 560.311 214.037 559.159C214.037 558.189 214.207 557.371 214.548 556.705C214.889 556.038 215.359 555.496 215.957 555.08C216.556 554.663 217.245 554.348 218.026 554.136C218.806 553.917 219.639 553.769 220.526 553.693C221.518 553.602 222.317 553.508 222.923 553.409C223.529 553.303 223.969 553.155 224.241 552.966C224.522 552.769 224.662 552.492 224.662 552.136V552.08C224.662 551.496 224.461 551.045 224.06 550.727C223.658 550.409 223.116 550.25 222.435 550.25C221.7 550.25 221.109 550.409 220.662 550.727C220.215 551.045 219.931 551.485 219.81 552.045L214.685 551.864C214.836 550.803 215.226 549.856 215.855 549.023C216.491 548.182 217.363 547.523 218.469 547.045C219.582 546.561 220.92 546.318 222.48 546.318C223.594 546.318 224.62 546.451 225.56 546.716C226.499 546.973 227.317 547.352 228.014 547.852C228.711 548.345 229.249 548.951 229.628 549.67C230.014 550.39 230.207 551.212 230.207 552.136V564H224.98V561.568H224.844C224.533 562.159 224.135 562.659 223.651 563.068C223.173 563.477 222.609 563.784 221.957 563.989C221.313 564.193 220.586 564.295 219.776 564.295ZM221.491 560.659C222.09 560.659 222.628 560.538 223.105 560.295C223.59 560.053 223.976 559.72 224.264 559.295C224.552 558.864 224.696 558.364 224.696 557.795V556.136C224.537 556.22 224.344 556.295 224.116 556.364C223.897 556.432 223.654 556.496 223.389 556.557C223.124 556.617 222.851 556.67 222.571 556.716C222.291 556.761 222.022 556.803 221.764 556.841C221.241 556.924 220.795 557.053 220.423 557.227C220.06 557.402 219.779 557.629 219.582 557.909C219.393 558.182 219.298 558.508 219.298 558.886C219.298 559.462 219.503 559.902 219.912 560.205C220.329 560.508 220.855 560.659 221.491 560.659ZM219.139 544.33C218.427 544.33 217.817 544.087 217.31 543.602C216.81 543.117 216.56 542.534 216.56 541.852C216.56 541.17 216.81 540.591 217.31 540.114C217.817 539.629 218.427 539.386 219.139 539.386C219.844 539.386 220.442 539.629 220.935 540.114C221.435 540.591 221.685 541.17 221.685 541.852C221.685 542.534 221.435 543.117 220.935 543.602C220.442 544.087 219.844 544.33 219.139 544.33ZM226.23 544.33C225.518 544.33 224.908 544.087 224.401 543.602C223.901 543.117 223.651 542.534 223.651 541.852C223.651 541.17 223.901 540.591 224.401 540.114C224.908 539.629 225.518 539.386 226.23 539.386C226.935 539.386 227.533 539.629 228.026 540.114C228.526 540.591 228.776 541.17 228.776 541.852C228.776 542.534 228.526 543.117 228.026 543.602C227.533 544.087 226.935 544.33 226.23 544.33ZM243.457 546.545V550.636H232.446V546.545H243.457ZM234.753 542.364H240.31V558.511C240.31 558.852 240.363 559.129 240.469 559.341C240.582 559.545 240.745 559.693 240.957 559.784C241.17 559.867 241.423 559.909 241.719 559.909C241.931 559.909 242.154 559.89 242.389 559.852C242.632 559.807 242.813 559.769 242.935 559.739L243.776 563.75C243.51 563.826 243.135 563.92 242.651 564.034C242.173 564.148 241.601 564.22 240.935 564.25C239.632 564.311 238.514 564.159 237.582 563.795C236.658 563.424 235.95 562.848 235.457 562.068C234.973 561.288 234.738 560.307 234.753 559.125V542.364ZM246.338 564V560.83L254.429 550.977V550.864H246.622V546.545H261.054V550.023L253.554 559.568V559.682H261.327V564H246.338ZM272.577 564.33C270.751 564.33 269.175 563.97 267.849 563.25C266.531 562.523 265.516 561.489 264.804 560.148C264.099 558.799 263.747 557.197 263.747 555.341C263.747 553.538 264.103 551.962 264.815 550.614C265.527 549.258 266.531 548.205 267.827 547.455C269.122 546.697 270.649 546.318 272.406 546.318C273.649 546.318 274.785 546.511 275.815 546.898C276.846 547.284 277.736 547.856 278.486 548.614C279.236 549.371 279.819 550.307 280.236 551.42C280.652 552.527 280.861 553.795 280.861 555.227V556.614H265.69V553.386H275.69C275.683 552.795 275.543 552.269 275.27 551.807C274.997 551.345 274.622 550.985 274.145 550.727C273.675 550.462 273.134 550.33 272.52 550.33C271.899 550.33 271.342 550.47 270.849 550.75C270.357 551.023 269.967 551.398 269.679 551.875C269.391 552.345 269.24 552.879 269.224 553.477V556.761C269.224 557.473 269.365 558.098 269.645 558.636C269.925 559.167 270.323 559.58 270.838 559.875C271.353 560.17 271.967 560.318 272.679 560.318C273.171 560.318 273.618 560.25 274.02 560.114C274.421 559.977 274.766 559.777 275.054 559.511C275.342 559.246 275.558 558.92 275.702 558.534L280.804 558.682C280.592 559.826 280.126 560.822 279.406 561.67C278.694 562.511 277.759 563.167 276.599 563.636C275.44 564.098 274.099 564.33 272.577 564.33Z" fill="white"/>
<path d="M70.152 287L63.4929 263.727H68.8679L72.7202 279.898H72.9134L77.1634 263.727H81.7656L86.0043 279.932H86.2088L90.0611 263.727H95.4361L88.777 287H83.9815L79.5497 271.784H79.3679L74.9474 287H70.152ZM101.081 287.33C99.9673 287.33 98.9749 287.136 98.1037 286.75C97.2325 286.356 96.5431 285.777 96.0355 285.011C95.5355 284.239 95.2855 283.277 95.2855 282.125C95.2855 281.155 95.4635 280.341 95.8196 279.682C96.1757 279.023 96.6605 278.492 97.2741 278.091C97.8878 277.689 98.5848 277.386 99.3651 277.182C100.153 276.977 100.979 276.833 101.842 276.75C102.857 276.644 103.676 276.545 104.297 276.455C104.918 276.356 105.369 276.212 105.649 276.023C105.929 275.833 106.07 275.553 106.07 275.182V275.114C106.07 274.394 105.842 273.837 105.388 273.443C104.941 273.049 104.304 272.852 103.479 272.852C102.607 272.852 101.914 273.045 101.399 273.432C100.884 273.811 100.543 274.288 100.376 274.864L95.8991 274.5C96.1264 273.439 96.5734 272.523 97.2401 271.75C97.9067 270.97 98.7666 270.371 99.8196 269.955C100.88 269.53 102.107 269.318 103.501 269.318C104.471 269.318 105.399 269.432 106.286 269.659C107.179 269.886 107.971 270.239 108.661 270.716C109.357 271.193 109.907 271.807 110.308 272.557C110.71 273.299 110.911 274.189 110.911 275.227V287H106.32V284.58H106.183C105.903 285.125 105.528 285.606 105.058 286.023C104.589 286.432 104.024 286.754 103.365 286.989C102.706 287.216 101.945 287.33 101.081 287.33ZM102.467 283.989C103.179 283.989 103.808 283.848 104.354 283.568C104.899 283.28 105.327 282.894 105.638 282.409C105.948 281.924 106.104 281.375 106.104 280.761V278.909C105.952 279.008 105.744 279.098 105.479 279.182C105.221 279.258 104.929 279.33 104.604 279.398C104.278 279.458 103.952 279.515 103.626 279.568C103.301 279.614 103.005 279.655 102.74 279.693C102.172 279.777 101.676 279.909 101.251 280.091C100.827 280.273 100.498 280.519 100.263 280.83C100.028 281.133 99.9105 281.511 99.9105 281.966C99.9105 282.625 100.149 283.129 100.626 283.477C101.111 283.818 101.725 283.989 102.467 283.989ZM129.189 274.523L124.757 274.795C124.681 274.417 124.518 274.076 124.268 273.773C124.018 273.462 123.689 273.216 123.28 273.034C122.878 272.845 122.397 272.75 121.837 272.75C121.087 272.75 120.454 272.909 119.939 273.227C119.424 273.538 119.166 273.955 119.166 274.477C119.166 274.894 119.333 275.246 119.666 275.534C120 275.822 120.571 276.053 121.382 276.227L124.541 276.864C126.238 277.212 127.503 277.773 128.337 278.545C129.17 279.318 129.587 280.333 129.587 281.591C129.587 282.735 129.25 283.739 128.575 284.602C127.909 285.466 126.992 286.14 125.825 286.625C124.666 287.102 123.329 287.341 121.814 287.341C119.503 287.341 117.662 286.86 116.291 285.898C114.928 284.928 114.128 283.61 113.893 281.943L118.655 281.693C118.799 282.398 119.147 282.936 119.7 283.307C120.253 283.67 120.962 283.852 121.825 283.852C122.674 283.852 123.356 283.689 123.871 283.364C124.393 283.03 124.659 282.602 124.666 282.08C124.659 281.64 124.473 281.28 124.109 281C123.746 280.712 123.185 280.492 122.428 280.341L119.405 279.739C117.7 279.398 116.431 278.807 115.598 277.966C114.772 277.125 114.359 276.053 114.359 274.75C114.359 273.629 114.662 272.663 115.268 271.852C115.882 271.042 116.742 270.417 117.848 269.977C118.962 269.538 120.265 269.318 121.757 269.318C123.962 269.318 125.696 269.784 126.962 270.716C128.234 271.648 128.977 272.917 129.189 274.523ZM140.041 287V269.545H144.655V272.625H144.859C145.223 271.602 145.829 270.795 146.678 270.205C147.526 269.614 148.541 269.318 149.723 269.318C150.92 269.318 151.939 269.617 152.78 270.216C153.621 270.807 154.181 271.61 154.462 272.625H154.643C155 271.625 155.643 270.826 156.575 270.227C157.515 269.621 158.625 269.318 159.905 269.318C161.534 269.318 162.856 269.837 163.871 270.875C164.893 271.905 165.405 273.367 165.405 275.261V287H160.575V276.216C160.575 275.246 160.318 274.519 159.803 274.034C159.287 273.549 158.643 273.307 157.871 273.307C156.992 273.307 156.306 273.587 155.814 274.148C155.321 274.701 155.075 275.432 155.075 276.341V287H150.382V276.114C150.382 275.258 150.136 274.576 149.643 274.068C149.159 273.561 148.518 273.307 147.723 273.307C147.185 273.307 146.7 273.443 146.268 273.716C145.844 273.981 145.507 274.356 145.257 274.841C145.007 275.318 144.882 275.879 144.882 276.523V287H140.041ZM177.115 287.341C175.35 287.341 173.823 286.966 172.536 286.216C171.255 285.458 170.267 284.405 169.57 283.057C168.873 281.701 168.524 280.129 168.524 278.341C168.524 276.538 168.873 274.962 169.57 273.614C170.267 272.258 171.255 271.205 172.536 270.455C173.823 269.697 175.35 269.318 177.115 269.318C178.88 269.318 180.403 269.697 181.683 270.455C182.971 271.205 183.964 272.258 184.661 273.614C185.357 274.962 185.706 276.538 185.706 278.341C185.706 280.129 185.357 281.701 184.661 283.057C183.964 284.405 182.971 285.458 181.683 286.216C180.403 286.966 178.88 287.341 177.115 287.341ZM177.138 283.591C177.941 283.591 178.611 283.364 179.149 282.909C179.687 282.447 180.092 281.818 180.365 281.023C180.645 280.227 180.786 279.322 180.786 278.307C180.786 277.292 180.645 276.386 180.365 275.591C180.092 274.795 179.687 274.167 179.149 273.705C178.611 273.242 177.941 273.011 177.138 273.011C176.327 273.011 175.645 273.242 175.092 273.705C174.547 274.167 174.134 274.795 173.854 275.591C173.581 276.386 173.445 277.292 173.445 278.307C173.445 279.322 173.581 280.227 173.854 281.023C174.134 281.818 174.547 282.447 175.092 282.909C175.645 283.364 176.327 283.591 177.138 283.591ZM173.649 267.159C172.998 267.159 172.437 266.932 171.967 266.477C171.498 266.015 171.263 265.47 171.263 264.841C171.263 264.197 171.498 263.652 171.967 263.205C172.437 262.758 172.998 262.534 173.649 262.534C174.308 262.534 174.865 262.758 175.32 263.205C175.782 263.652 176.013 264.197 176.013 264.841C176.013 265.47 175.782 266.015 175.32 266.477C174.865 266.932 174.308 267.159 173.649 267.159ZM180.604 267.159C179.952 267.159 179.392 266.932 178.922 266.477C178.452 266.015 178.217 265.47 178.217 264.841C178.217 264.197 178.452 263.652 178.922 263.205C179.392 262.758 179.952 262.534 180.604 262.534C181.263 262.534 181.82 262.758 182.274 263.205C182.736 263.652 182.967 264.197 182.967 264.841C182.967 265.47 182.736 266.015 182.274 266.477C181.82 266.932 181.263 267.159 180.604 267.159ZM196.74 287.341C194.952 287.341 193.414 286.962 192.126 286.205C190.846 285.439 189.861 284.379 189.172 283.023C188.49 281.667 188.149 280.106 188.149 278.341C188.149 276.553 188.494 274.985 189.183 273.636C189.88 272.28 190.869 271.223 192.149 270.466C193.429 269.701 194.952 269.318 196.717 269.318C198.24 269.318 199.573 269.595 200.717 270.148C201.861 270.701 202.767 271.477 203.433 272.477C204.1 273.477 204.467 274.652 204.536 276H199.967C199.839 275.129 199.498 274.428 198.945 273.898C198.399 273.36 197.683 273.091 196.797 273.091C196.047 273.091 195.392 273.295 194.831 273.705C194.278 274.106 193.846 274.693 193.536 275.466C193.225 276.239 193.07 277.174 193.07 278.273C193.07 279.386 193.221 280.333 193.524 281.114C193.835 281.894 194.27 282.489 194.831 282.898C195.392 283.307 196.047 283.511 196.797 283.511C197.35 283.511 197.846 283.398 198.286 283.17C198.732 282.943 199.1 282.614 199.388 282.182C199.683 281.742 199.876 281.216 199.967 280.602H204.536C204.46 281.936 204.096 283.11 203.445 284.125C202.801 285.133 201.911 285.92 200.774 286.489C199.638 287.057 198.293 287.341 196.74 287.341ZM212.476 276.909V287H207.635V263.727H212.339V272.625H212.544C212.938 271.595 213.574 270.788 214.453 270.205C215.332 269.614 216.434 269.318 217.76 269.318C218.972 269.318 220.029 269.583 220.93 270.114C221.839 270.636 222.544 271.39 223.044 272.375C223.552 273.352 223.802 274.523 223.794 275.886V287H218.953V276.75C218.961 275.674 218.688 274.837 218.135 274.239C217.589 273.64 216.824 273.341 215.839 273.341C215.18 273.341 214.597 273.481 214.089 273.761C213.589 274.042 213.196 274.451 212.908 274.989C212.627 275.519 212.483 276.159 212.476 276.909ZM236.888 269.545V273.182H226.376V269.545H236.888ZM228.763 265.364H233.604V281.636C233.604 282.083 233.672 282.432 233.808 282.682C233.945 282.924 234.134 283.095 234.376 283.193C234.626 283.292 234.914 283.341 235.24 283.341C235.467 283.341 235.695 283.322 235.922 283.284C236.149 283.239 236.323 283.205 236.445 283.182L237.206 286.784C236.964 286.86 236.623 286.947 236.183 287.045C235.744 287.152 235.21 287.216 234.581 287.239C233.414 287.284 232.392 287.129 231.513 286.773C230.642 286.417 229.964 285.864 229.479 285.114C228.994 284.364 228.755 283.417 228.763 282.273V265.364ZM247.808 287.341C246.013 287.341 244.467 286.977 243.172 286.25C241.884 285.515 240.892 284.477 240.195 283.136C239.498 281.788 239.149 280.193 239.149 278.352C239.149 276.557 239.498 274.981 240.195 273.625C240.892 272.269 241.873 271.212 243.138 270.455C244.411 269.697 245.903 269.318 247.615 269.318C248.767 269.318 249.839 269.504 250.831 269.875C251.831 270.239 252.702 270.788 253.445 271.523C254.195 272.258 254.778 273.182 255.195 274.295C255.611 275.402 255.82 276.697 255.82 278.182V279.511H241.081V276.511H251.263C251.263 275.814 251.111 275.197 250.808 274.659C250.505 274.121 250.085 273.701 249.547 273.398C249.017 273.087 248.399 272.932 247.695 272.932C246.96 272.932 246.308 273.102 245.74 273.443C245.179 273.777 244.74 274.227 244.422 274.795C244.104 275.356 243.941 275.981 243.933 276.67V279.523C243.933 280.386 244.092 281.133 244.411 281.761C244.736 282.39 245.195 282.875 245.786 283.216C246.376 283.557 247.077 283.727 247.888 283.727C248.426 283.727 248.918 283.652 249.365 283.5C249.812 283.348 250.195 283.121 250.513 282.818C250.831 282.515 251.073 282.144 251.24 281.705L255.717 282C255.49 283.076 255.024 284.015 254.32 284.818C253.623 285.614 252.721 286.235 251.615 286.682C250.517 287.121 249.248 287.341 247.808 287.341ZM273.501 274.523L269.07 274.795C268.994 274.417 268.831 274.076 268.581 273.773C268.331 273.462 268.001 273.216 267.592 273.034C267.191 272.845 266.71 272.75 266.149 272.75C265.399 272.75 264.767 272.909 264.251 273.227C263.736 273.538 263.479 273.955 263.479 274.477C263.479 274.894 263.645 275.246 263.979 275.534C264.312 275.822 264.884 276.053 265.695 276.227L268.854 276.864C270.551 277.212 271.816 277.773 272.649 278.545C273.482 279.318 273.899 280.333 273.899 281.591C273.899 282.735 273.562 283.739 272.888 284.602C272.221 285.466 271.304 286.14 270.138 286.625C268.979 287.102 267.642 287.341 266.126 287.341C263.816 287.341 261.975 286.86 260.604 285.898C259.24 284.928 258.441 283.61 258.206 281.943L262.967 281.693C263.111 282.398 263.46 282.936 264.013 283.307C264.566 283.67 265.274 283.852 266.138 283.852C266.986 283.852 267.668 283.689 268.183 283.364C268.706 283.03 268.971 282.602 268.979 282.08C268.971 281.64 268.786 281.28 268.422 281C268.058 280.712 267.498 280.492 266.74 280.341L263.717 279.739C262.013 279.398 260.744 278.807 259.911 277.966C259.085 277.125 258.672 276.053 258.672 274.75C258.672 273.629 258.975 272.663 259.581 271.852C260.195 271.042 261.054 270.417 262.161 269.977C263.274 269.538 264.577 269.318 266.07 269.318C268.274 269.318 270.009 269.784 271.274 270.716C272.547 271.648 273.289 272.917 273.501 274.523ZM286.232 269.545V273.182H275.72V269.545H286.232ZM278.107 265.364H282.947V281.636C282.947 282.083 283.016 282.432 283.152 282.682C283.288 282.924 283.478 283.095 283.72 283.193C283.97 283.292 284.258 283.341 284.584 283.341C284.811 283.341 285.038 283.322 285.266 283.284C285.493 283.239 285.667 283.205 285.788 283.182L286.55 286.784C286.307 286.86 285.966 286.947 285.527 287.045C285.088 287.152 284.554 287.216 283.925 287.239C282.758 287.284 281.735 287.129 280.857 286.773C279.985 286.417 279.307 285.864 278.822 285.114C278.338 284.364 278.099 283.417 278.107 282.273V265.364ZM303.223 287.284C301.897 287.284 300.696 286.943 299.621 286.261C298.553 285.572 297.704 284.561 297.075 283.227C296.454 281.886 296.143 280.242 296.143 278.295C296.143 276.295 296.465 274.633 297.109 273.307C297.753 271.973 298.609 270.977 299.678 270.318C300.753 269.652 301.931 269.318 303.212 269.318C304.189 269.318 305.003 269.485 305.655 269.818C306.314 270.144 306.844 270.553 307.246 271.045C307.655 271.53 307.965 272.008 308.178 272.477H308.325V263.727H313.155V287H308.382V284.205H308.178C307.95 284.689 307.628 285.17 307.212 285.648C306.803 286.117 306.268 286.508 305.609 286.818C304.958 287.129 304.162 287.284 303.223 287.284ZM304.757 283.432C305.537 283.432 306.196 283.22 306.734 282.795C307.28 282.364 307.696 281.761 307.984 280.989C308.28 280.216 308.428 279.311 308.428 278.273C308.428 277.235 308.284 276.333 307.996 275.568C307.708 274.803 307.291 274.212 306.746 273.795C306.2 273.379 305.537 273.17 304.757 273.17C303.962 273.17 303.291 273.386 302.746 273.818C302.2 274.25 301.787 274.848 301.507 275.614C301.227 276.379 301.087 277.265 301.087 278.273C301.087 279.288 301.227 280.186 301.507 280.966C301.795 281.739 302.208 282.345 302.746 282.784C303.291 283.216 303.962 283.432 304.757 283.432ZM328.328 279.568V269.545H333.169V287H328.521V283.83H328.339C327.946 284.852 327.29 285.674 326.374 286.295C325.464 286.917 324.355 287.227 323.044 287.227C321.877 287.227 320.851 286.962 319.964 286.432C319.078 285.902 318.385 285.148 317.885 284.17C317.393 283.193 317.143 282.023 317.135 280.659V269.545H321.976V279.795C321.983 280.826 322.26 281.64 322.805 282.239C323.351 282.837 324.082 283.136 324.999 283.136C325.582 283.136 326.127 283.004 326.635 282.739C327.143 282.466 327.552 282.064 327.862 281.534C328.18 281.004 328.336 280.348 328.328 279.568ZM101.916 330V312.545H106.609V315.591H106.791C107.109 314.508 107.643 313.689 108.393 313.136C109.143 312.576 110.007 312.295 110.984 312.295C111.227 312.295 111.488 312.311 111.768 312.341C112.049 312.371 112.295 312.413 112.507 312.466V316.761C112.28 316.693 111.965 316.633 111.564 316.58C111.162 316.527 110.795 316.5 110.462 316.5C109.75 316.5 109.113 316.655 108.553 316.966C108 317.269 107.56 317.693 107.234 318.239C106.916 318.784 106.757 319.413 106.757 320.125V330H101.916ZM122.152 330.341C120.357 330.341 118.811 329.977 117.516 329.25C116.228 328.515 115.235 327.477 114.538 326.136C113.841 324.788 113.493 323.193 113.493 321.352C113.493 319.557 113.841 317.981 114.538 316.625C115.235 315.269 116.216 314.212 117.482 313.455C118.754 312.697 120.247 312.318 121.959 312.318C123.11 312.318 124.182 312.504 125.175 312.875C126.175 313.239 127.046 313.788 127.788 314.523C128.538 315.258 129.122 316.182 129.538 317.295C129.955 318.402 130.163 319.697 130.163 321.182V322.511H115.425V319.511H125.607C125.607 318.814 125.455 318.197 125.152 317.659C124.849 317.121 124.429 316.701 123.891 316.398C123.36 316.087 122.743 315.932 122.038 315.932C121.304 315.932 120.652 316.102 120.084 316.443C119.523 316.777 119.084 317.227 118.766 317.795C118.447 318.356 118.285 318.981 118.277 319.67V322.523C118.277 323.386 118.436 324.133 118.754 324.761C119.08 325.39 119.538 325.875 120.129 326.216C120.72 326.557 121.421 326.727 122.232 326.727C122.769 326.727 123.262 326.652 123.709 326.5C124.156 326.348 124.538 326.121 124.857 325.818C125.175 325.515 125.417 325.144 125.584 324.705L130.061 325C129.834 326.076 129.368 327.015 128.663 327.818C127.966 328.614 127.065 329.235 125.959 329.682C124.86 330.121 123.591 330.341 122.152 330.341ZM147.845 317.523L143.413 317.795C143.338 317.417 143.175 317.076 142.925 316.773C142.675 316.462 142.345 316.216 141.936 316.034C141.535 315.845 141.054 315.75 140.493 315.75C139.743 315.75 139.11 315.909 138.595 316.227C138.08 316.538 137.822 316.955 137.822 317.477C137.822 317.894 137.989 318.246 138.322 318.534C138.656 318.822 139.228 319.053 140.038 319.227L143.197 319.864C144.894 320.212 146.16 320.773 146.993 321.545C147.826 322.318 148.243 323.333 148.243 324.591C148.243 325.735 147.906 326.739 147.232 327.602C146.565 328.466 145.648 329.14 144.482 329.625C143.322 330.102 141.985 330.341 140.47 330.341C138.16 330.341 136.319 329.86 134.947 328.898C133.584 327.928 132.785 326.61 132.55 324.943L137.311 324.693C137.455 325.398 137.804 325.936 138.357 326.307C138.91 326.67 139.618 326.852 140.482 326.852C141.33 326.852 142.012 326.689 142.527 326.364C143.05 326.03 143.315 325.602 143.322 325.08C143.315 324.64 143.129 324.28 142.766 324C142.402 323.712 141.841 323.492 141.084 323.341L138.061 322.739C136.357 322.398 135.088 321.807 134.254 320.966C133.429 320.125 133.016 319.053 133.016 317.75C133.016 316.629 133.319 315.663 133.925 314.852C134.538 314.042 135.398 313.417 136.504 312.977C137.618 312.538 138.921 312.318 140.413 312.318C142.618 312.318 144.353 312.784 145.618 313.716C146.891 314.648 147.633 315.917 147.845 317.523ZM159.246 330.341C157.45 330.341 155.905 329.977 154.609 329.25C153.321 328.515 152.329 327.477 151.632 326.136C150.935 324.788 150.587 323.193 150.587 321.352C150.587 319.557 150.935 317.981 151.632 316.625C152.329 315.269 153.31 314.212 154.575 313.455C155.848 312.697 157.34 312.318 159.053 312.318C160.204 312.318 161.276 312.504 162.268 312.875C163.268 313.239 164.14 313.788 164.882 314.523C165.632 315.258 166.215 316.182 166.632 317.295C167.049 318.402 167.257 319.697 167.257 321.182V322.511H152.518V319.511H162.7C162.7 318.814 162.549 318.197 162.246 317.659C161.943 317.121 161.522 316.701 160.984 316.398C160.454 316.087 159.837 315.932 159.132 315.932C158.397 315.932 157.746 316.102 157.178 316.443C156.617 316.777 156.178 317.227 155.859 317.795C155.541 318.356 155.378 318.981 155.371 319.67V322.523C155.371 323.386 155.53 324.133 155.848 324.761C156.174 325.39 156.632 325.875 157.223 326.216C157.814 326.557 158.515 326.727 159.325 326.727C159.863 326.727 160.356 326.652 160.803 326.5C161.25 326.348 161.632 326.121 161.95 325.818C162.268 325.515 162.511 325.144 162.678 324.705L167.155 325C166.928 326.076 166.462 327.015 165.757 327.818C165.06 328.614 164.159 329.235 163.053 329.682C161.954 330.121 160.685 330.341 159.246 330.341ZM170.416 330V312.545H175.109V315.591H175.291C175.609 314.508 176.143 313.689 176.893 313.136C177.643 312.576 178.507 312.295 179.484 312.295C179.727 312.295 179.988 312.311 180.268 312.341C180.549 312.371 180.795 312.413 181.007 312.466V316.761C180.78 316.693 180.465 316.633 180.064 316.58C179.662 316.527 179.295 316.5 178.962 316.5C178.25 316.5 177.613 316.655 177.053 316.966C176.5 317.269 176.06 317.693 175.734 318.239C175.416 318.784 175.257 319.413 175.257 320.125V330H170.416ZM200.314 312.545L194.212 330H188.757L182.655 312.545H187.768L191.393 325.034H191.575L195.189 312.545H200.314ZM202.791 330V312.545H207.632V330H202.791ZM205.223 310.295C204.503 310.295 203.886 310.057 203.371 309.58C202.863 309.095 202.609 308.515 202.609 307.841C202.609 307.174 202.863 306.602 203.371 306.125C203.886 305.64 204.503 305.398 205.223 305.398C205.943 305.398 206.556 305.64 207.064 306.125C207.579 306.602 207.837 307.174 207.837 307.841C207.837 308.515 207.579 309.095 207.064 309.58C206.556 310.057 205.943 310.295 205.223 310.295ZM219.464 330.341C217.669 330.341 216.124 329.977 214.828 329.25C213.54 328.515 212.548 327.477 211.851 326.136C211.154 324.788 210.805 323.193 210.805 321.352C210.805 319.557 211.154 317.981 211.851 316.625C212.548 315.269 213.529 314.212 214.794 313.455C216.067 312.697 217.559 312.318 219.271 312.318C220.423 312.318 221.495 312.504 222.487 312.875C223.487 313.239 224.358 313.788 225.101 314.523C225.851 315.258 226.434 316.182 226.851 317.295C227.268 318.402 227.476 319.697 227.476 321.182V322.511H212.737V319.511H222.919C222.919 318.814 222.768 318.197 222.464 317.659C222.161 317.121 221.741 316.701 221.203 316.398C220.673 316.087 220.055 315.932 219.351 315.932C218.616 315.932 217.964 316.102 217.396 316.443C216.836 316.777 216.396 317.227 216.078 317.795C215.76 318.356 215.597 318.981 215.589 319.67V322.523C215.589 323.386 215.749 324.133 216.067 324.761C216.393 325.39 216.851 325.875 217.442 326.216C218.033 326.557 218.733 326.727 219.544 326.727C220.082 326.727 220.574 326.652 221.021 326.5C221.468 326.348 221.851 326.121 222.169 325.818C222.487 325.515 222.73 325.144 222.896 324.705L227.374 325C227.146 326.076 226.68 327.015 225.976 327.818C225.279 328.614 224.377 329.235 223.271 329.682C222.173 330.121 220.904 330.341 219.464 330.341ZM230.635 330V312.545H235.328V315.591H235.51C235.828 314.508 236.362 313.689 237.112 313.136C237.862 312.576 238.726 312.295 239.703 312.295C239.946 312.295 240.207 312.311 240.487 312.341C240.768 312.371 241.014 312.413 241.226 312.466V316.761C240.999 316.693 240.684 316.633 240.283 316.58C239.881 316.527 239.514 316.5 239.18 316.5C238.468 316.5 237.832 316.655 237.271 316.966C236.718 317.269 236.279 317.693 235.953 318.239C235.635 318.784 235.476 319.413 235.476 320.125V330H230.635ZM250.871 330.341C249.075 330.341 247.53 329.977 246.234 329.25C244.946 328.515 243.954 327.477 243.257 326.136C242.56 324.788 242.212 323.193 242.212 321.352C242.212 319.557 242.56 317.981 243.257 316.625C243.954 315.269 244.935 314.212 246.2 313.455C247.473 312.697 248.965 312.318 250.678 312.318C251.829 312.318 252.901 312.504 253.893 312.875C254.893 313.239 255.765 313.788 256.507 314.523C257.257 315.258 257.84 316.182 258.257 317.295C258.674 318.402 258.882 319.697 258.882 321.182V322.511H244.143V319.511H254.325C254.325 318.814 254.174 318.197 253.871 317.659C253.568 317.121 253.147 316.701 252.609 316.398C252.079 316.087 251.462 315.932 250.757 315.932C250.022 315.932 249.371 316.102 248.803 316.443C248.242 316.777 247.803 317.227 247.484 317.795C247.166 318.356 247.003 318.981 246.996 319.67V322.523C246.996 323.386 247.155 324.133 247.473 324.761C247.799 325.39 248.257 325.875 248.848 326.216C249.439 326.557 250.14 326.727 250.95 326.727C251.488 326.727 251.981 326.652 252.428 326.5C252.875 326.348 253.257 326.121 253.575 325.818C253.893 325.515 254.136 325.144 254.303 324.705L258.78 325C258.553 326.076 258.087 327.015 257.382 327.818C256.685 328.614 255.784 329.235 254.678 329.682C253.579 330.121 252.31 330.341 250.871 330.341ZM266.882 319.909V330H262.041V312.545H266.655V315.625H266.859C267.246 314.61 267.893 313.807 268.803 313.216C269.712 312.617 270.814 312.318 272.109 312.318C273.321 312.318 274.378 312.583 275.28 313.114C276.181 313.644 276.882 314.402 277.382 315.386C277.882 316.364 278.132 317.53 278.132 318.886V330H273.291V319.75C273.299 318.682 273.026 317.848 272.473 317.25C271.92 316.644 271.159 316.341 270.189 316.341C269.537 316.341 268.962 316.481 268.462 316.761C267.969 317.042 267.583 317.451 267.303 317.989C267.03 318.519 266.89 319.159 266.882 319.909ZM286.107 323.023V322.636C286.114 321.311 286.232 320.254 286.459 319.466C286.694 318.678 287.035 318.042 287.482 317.557C287.929 317.072 288.466 316.633 289.095 316.239C289.565 315.936 289.985 315.621 290.357 315.295C290.728 314.97 291.023 314.61 291.243 314.216C291.463 313.814 291.572 313.367 291.572 312.875C291.572 312.352 291.447 311.894 291.197 311.5C290.947 311.106 290.61 310.803 290.186 310.591C289.769 310.379 289.307 310.273 288.8 310.273C288.307 310.273 287.841 310.383 287.402 310.602C286.963 310.814 286.603 311.133 286.322 311.557C286.042 311.973 285.891 312.492 285.868 313.114H281.232C281.269 311.598 281.633 310.348 282.322 309.364C283.012 308.371 283.925 307.633 285.061 307.148C286.197 306.655 287.451 306.409 288.822 306.409C290.33 306.409 291.663 306.659 292.822 307.159C293.982 307.652 294.891 308.367 295.55 309.307C296.209 310.246 296.538 311.379 296.538 312.705C296.538 313.591 296.391 314.379 296.095 315.068C295.807 315.75 295.402 316.356 294.879 316.886C294.357 317.409 293.739 317.883 293.027 318.307C292.429 318.663 291.936 319.034 291.55 319.42C291.171 319.807 290.887 320.254 290.697 320.761C290.516 321.269 290.421 321.894 290.413 322.636V323.023H286.107ZM288.357 330.295C287.599 330.295 286.951 330.03 286.413 329.5C285.883 328.962 285.622 328.318 285.629 327.568C285.622 326.826 285.883 326.189 286.413 325.659C286.951 325.129 287.599 324.864 288.357 324.864C289.076 324.864 289.709 325.129 290.254 325.659C290.8 326.189 291.076 326.826 291.084 327.568C291.076 328.068 290.944 328.527 290.686 328.943C290.436 329.352 290.107 329.682 289.697 329.932C289.288 330.174 288.841 330.295 288.357 330.295Z" fill="black"/>
<path fill-rule="evenodd" clip-rule="evenodd" d="M264.764 137.472C264.736 137.475 259.544 137.486 257.131 137.486C254.112 137.486 252.958 137.697 251.389 139.37L247.655 143.262C245.122 145.654 246.205 145.495 244.152 145.498L227 145.495C225.175 145.503 225.228 146.987 225.67 147.533C226.011 147.955 226.371 148.032 227.079 148.029H251.782C253.147 148.029 254.106 147.865 255.161 148.488C257.274 149.736 257.793 152.701 262.324 152.698C264.868 152.694 267.412 152.694 269.957 152.698C274.537 152.701 275.114 149.67 277.171 148.455C278.149 147.876 279.243 148.027 280.499 148.027C283.007 148.027 285.557 148.029 288.068 148.019C288.612 149.878 290.329 151.233 292.368 151.233C294.843 151.233 296.846 149.234 296.846 146.762C296.846 144.291 294.843 142.291 292.368 142.291C290.332 142.291 288.615 143.644 288.071 145.498C288.065 145.498 288.06 145.498 288.054 145.498C288.043 145.498 284.013 145.498 281.993 145.498C280.078 145.498 278.023 145.298 276.432 146C274.168 147.001 273.094 149.475 271.413 150.018C270.498 150.314 263.736 150.163 262.481 150.163C260 150.166 259.634 149.256 258.505 148.131C257.513 147.141 256.774 146.153 254.917 145.668C253.689 145.347 250.568 145.487 249.098 145.498C249.246 145.133 251.249 143.205 251.683 142.728C252.342 142.001 253.612 140.539 254.51 140.21C255.477 139.853 258.39 140.009 259.651 140.009C261.236 140.009 264.582 140.015 264.907 140.018C265.528 141.746 267.179 142.977 269.124 142.977C271.6 142.977 273.602 140.978 273.602 138.506C273.602 136.035 271.6 134.035 269.124 134.035C267.003 134.035 265.231 135.5 264.767 137.472C264.765 137.472 264.764 137.472 264.764 137.472ZM267.146 138.501C267.146 137.409 268.031 136.529 269.121 136.529C270.215 136.529 271.099 137.409 271.099 138.501C271.099 139.592 270.215 140.473 269.121 140.473C268.031 140.473 267.146 139.592 267.146 138.501ZM290.389 146.757C290.389 145.665 291.274 144.785 292.365 144.785C293.458 144.785 294.343 145.665 294.343 146.757C294.343 147.848 293.458 148.729 292.365 148.729C291.274 148.729 290.389 147.848 290.389 146.757Z" fill="#00B1FE"/>
<path fill-rule="evenodd" clip-rule="evenodd" d="M256.939 157.81C255.782 157.654 255.175 156.903 254.623 156.351C251.472 153.194 251.562 153.17 246.534 153.17H227.81C227.09 153.17 225.349 152.92 225.36 154.45C225.368 155.973 227.107 155.701 227.89 155.701H246.694C250.526 155.701 250.241 155.559 252.279 157.594C253.425 158.738 254.582 160.208 257.074 160.356C259.417 160.493 262.162 160.367 264.549 160.367C267.042 160.367 269.534 160.367 272.025 160.367C274.462 160.367 277.529 160.375 279.468 160.375C279.487 160.375 279.506 160.372 279.526 160.367C280.07 162.224 281.784 163.576 283.823 163.576C286.299 163.576 288.301 161.576 288.301 159.105C288.301 156.634 286.299 154.634 283.823 154.634C281.79 154.634 280.078 155.978 279.529 157.827C279.516 157.827 279.503 157.827 279.49 157.827C278.751 157.827 257.755 157.92 256.939 157.81ZM281.828 159.091C281.828 158 282.73 157.128 283.82 157.128C284.837 157.128 285.757 157.95 285.757 159.075C285.757 160.071 285.087 161.072 283.872 161.072C282.686 161.072 281.828 160.183 281.828 159.091Z" fill="#00B1FE"/>
<path fill-rule="evenodd" clip-rule="evenodd" d="M237.685 137.173C237.63 137.173 227.423 137.181 222.411 137.181C217.375 137.181 212.342 137.184 207.306 137.179C204.613 137.176 203.429 137.664 201.16 138.687C200.764 138.863 199.539 138.092 198.486 137.744C195.695 136.825 190.744 137.179 187.716 137.179H172.534C169.789 137.181 168.709 138.424 167.462 139.672C165.22 141.918 165.426 141.833 162.069 141.833C160.687 141.833 155.499 141.951 154.546 141.798C153.329 141.6 152.867 140.928 152.224 140.349C148.842 137.308 149.598 137.179 144.053 137.179C141.537 137.179 139.02 137.179 136.501 137.179C134.635 137.179 129.236 137.162 128.951 137.162C128.398 135.319 126.689 133.981 124.662 133.981C122.186 133.981 120.183 135.98 120.183 138.451C120.183 140.923 122.186 142.922 124.662 142.922C126.695 142.922 128.409 141.576 128.956 139.721C129.195 139.721 135.753 139.716 138.94 139.716C140.62 139.716 142.299 139.716 143.977 139.716C147.883 139.716 147.504 139.422 149.7 141.458C151.098 142.755 152.029 144.025 154.302 144.324C155.302 144.458 162.769 144.409 164.195 144.368C167.259 144.28 168.377 142.228 170.292 140.454C171.308 139.51 172.825 139.716 174.501 139.716C176.152 139.716 192.752 139.716 194.404 139.716C196.302 139.713 197.058 139.941 198.585 140.47C198.41 140.925 197.47 141.611 197.08 141.99C196.69 142.368 196.036 143.032 195.624 143.441C195.107 143.948 194.635 144.354 194.123 144.848C193.577 145.377 193.134 145.772 192.629 146.263C191.708 147.163 190.719 148.005 190.203 149.651C189.659 151.379 189.909 153.03 190.64 154.461C191.791 156.711 195.071 158.803 198.58 157.3C199.987 156.697 200.901 155.696 201.88 154.793C202.893 153.861 203.954 152.98 204.946 152.064C205.572 152.429 207.723 154.826 208.402 155.501L220.378 167.498C223.002 170.09 220.101 173.546 217.389 172.125C216.661 171.744 216.12 171.053 215.559 170.502C214.812 169.767 213.603 170.216 213.438 171.135C213.141 172.795 215.974 173.151 215.705 175.647C215.502 177.501 213.477 178.832 211.586 177.77C210.828 177.345 210.427 176.646 209.779 176.116C209.004 175.483 207.831 175.955 207.726 176.934C207.553 178.563 210.441 178.917 209.971 181.561C209.663 183.289 207.572 184.531 205.836 183.432C205.201 183.031 204.693 182.208 204.072 181.736C203.207 181.084 202.094 181.742 202.05 182.675C201.979 184.125 204.671 184.743 204.284 187.192C204.017 188.887 202.009 190.261 200.135 189.126C199.569 188.783 196.813 186.059 196.673 185.733C197.033 185.16 199.28 183.078 199.918 182.441C200.855 181.512 202.187 180.483 202.723 178.807C203.325 176.928 202.712 174.984 201.753 173.843C201.333 173.343 200.698 172.792 199.934 172.43C198.901 171.942 198.473 172.032 197.253 171.914C197.368 168.505 194.882 166.127 191.574 166.245C191.475 165.156 191.555 164.739 191.151 163.771C190.84 163.022 190.458 162.553 190 162.092C188.909 160.992 187.873 160.6 185.84 160.545C186.029 157.139 183.243 154.431 179.809 154.906C177.913 155.166 177.092 156.135 176.16 157.075C175.177 158.068 174.237 158.99 173.251 159.983L168.847 164.38C167.981 165.246 168.231 165.32 166.869 165.32C164.772 165.318 155.192 165.299 155.162 165.299C154.607 163.458 152.898 162.122 150.873 162.122C148.397 162.122 146.394 164.122 146.394 166.593C146.394 169.064 148.397 171.064 150.873 171.064C152.911 171.064 154.629 169.712 155.173 167.852H165.981C165.989 168.826 165.481 169.202 165.844 170.831C166.031 171.678 166.429 172.466 166.882 172.998C167.984 174.301 169.105 174.92 171.418 174.97C171.498 177.038 171.88 178.039 173.001 179.142C173.408 179.542 173.995 180.003 174.696 180.277C175.765 180.697 176.018 180.516 177.119 180.678C177.18 182.727 177.611 183.766 178.702 184.839C179.724 185.843 180.856 186.339 182.823 186.355C182.873 188.314 183.238 189.326 184.288 190.415C185.145 191.306 186.403 192.066 188.189 192.047C191.568 192.011 192.752 189.128 194.797 187.59C195.159 187.771 197.195 189.913 197.64 190.357C199.149 191.863 201.553 192.587 203.784 191.561C205.869 190.599 206.77 188.857 206.85 186.361C208.943 186.298 209.883 185.892 211.001 184.789C212.117 183.684 212.479 182.71 212.543 180.664C213.62 180.582 214.092 180.645 215.021 180.253C215.765 179.94 216.254 179.548 216.705 179.095C217.826 177.962 218.178 177.041 218.252 174.975C220.178 174.885 221.628 174.525 222.826 172.954C224.695 170.499 223.664 168.689 223.689 167.855C225.258 167.855 228.371 168.017 229.728 167.742C232.484 167.186 233.143 165.315 234.959 163.861C235.555 163.387 236.281 163.181 237.278 163.184C239.297 163.192 241.317 163.187 243.336 163.187C245.757 163.187 246.949 162.882 248.328 164.336C248.837 164.868 249.408 165.279 249.908 165.822C251.958 168.044 253.856 167.852 256.947 167.852C258.947 167.852 263.011 167.858 263.058 167.858C263.061 167.858 263.065 167.858 263.069 167.858C263.613 169.712 265.33 171.064 267.366 171.064C269.841 171.064 271.844 169.064 271.844 166.593C271.844 164.122 269.841 162.122 267.366 162.122C265.335 162.122 263.624 163.466 263.074 165.312C262.896 165.312 259.519 165.323 257.892 165.323C256.585 165.323 254.049 165.518 253.04 165.052C252.139 164.632 251.09 163.431 250.298 162.685C249.474 161.908 248.609 161.096 247.084 160.789C245.825 160.534 238.712 160.627 236.965 160.655C233.803 160.704 232.66 162.682 230.67 164.528C229.574 165.545 228.104 165.32 226.343 165.32C225.479 165.32 224.613 165.32 223.747 165.32C222.892 165.32 221.922 165.488 221.491 165.054L206.248 149.719C204.655 148.106 203.995 149.535 201.786 151.477C200.847 152.306 198.64 154.53 197.632 154.952C196.201 155.556 194.673 155.158 193.739 154.355C192.876 153.608 192.178 152.259 192.552 150.668C192.915 149.121 194.923 147.643 196.099 146.507C196.566 146.057 196.929 145.679 197.371 145.265C200.25 142.568 202.119 139.713 207.07 139.713L227.525 139.716C229.838 139.716 237.517 139.727 237.685 139.727C238.234 141.576 239.946 142.922 241.979 142.922C244.454 142.922 246.457 140.923 246.457 138.451C246.457 135.98 244.454 133.981 241.979 133.981C239.949 133.981 238.237 135.325 237.685 137.173ZM198.305 174.616C200.347 175.145 201.168 177.63 199.561 179.262C198.294 180.546 197.055 181.75 195.783 183.031C194.527 184.298 193.318 185.508 192.049 186.764C191.398 187.409 190.813 188.001 190.162 188.648C187.42 191.372 183.625 187.606 186.137 184.866L189.906 181.092C191.173 179.83 192.379 178.621 193.645 177.362C194.294 176.714 194.879 176.122 195.53 175.475C196.135 174.874 197.019 174.281 198.305 174.616ZM192.469 168.892C194.505 169.352 195.492 171.687 193.978 173.453C193.338 174.199 187.291 180.146 186.433 180.999C184.961 182.466 183.735 184.221 181.856 183.832C179.886 183.426 178.795 180.99 180.359 179.257C181.219 178.302 183.106 176.5 184.125 175.477L189.791 169.821C190.368 169.237 191.225 168.609 192.469 168.892ZM181.002 157.484C183.068 157.871 184.046 160.205 182.609 162.024C182.136 162.624 181.304 163.351 180.735 163.924C180.089 164.572 179.496 165.164 178.848 165.809L173.185 171.464C170.259 174.405 166.66 170.439 168.918 167.912C169.492 167.271 170.179 166.64 170.8 166.023L176.463 160.364C177.108 159.717 177.702 159.127 178.35 158.48C178.916 157.917 179.718 157.24 181.002 157.484ZM186.9 163.222C188.87 163.738 189.755 166.113 188.238 167.8L178.804 177.233C176.064 180 172.237 176.218 174.699 173.524L184.131 164.094C184.735 163.496 185.598 162.882 186.9 163.222ZM122.667 138.438C122.667 137.346 123.568 136.474 124.659 136.474C125.676 136.474 126.596 137.297 126.596 138.421C126.596 139.417 125.926 140.418 124.711 140.418C123.524 140.418 122.667 139.529 122.667 138.438ZM148.878 166.579C148.878 165.488 149.779 164.616 150.87 164.616C151.887 164.616 152.807 165.438 152.807 166.563C152.807 167.559 152.137 168.56 150.922 168.56C149.735 168.56 148.878 167.671 148.878 166.579ZM239.984 138.438C239.984 137.346 240.885 136.474 241.976 136.474C242.993 136.474 243.913 137.297 243.913 138.421C243.913 139.417 243.243 140.418 242.028 140.418C240.842 140.418 239.984 139.529 239.984 138.438ZM265.371 166.579C265.371 165.488 266.272 164.616 267.363 164.616C268.379 164.616 269.3 165.438 269.3 166.563C269.3 167.559 268.629 168.56 267.415 168.56C266.228 168.56 265.371 167.671 265.371 166.579Z" fill="#00B1FE"/>
<path fill-rule="evenodd" clip-rule="evenodd" d="M135.295 167.646C138.27 167.646 139.215 167.559 140.877 165.916C142.133 164.673 143.273 163.466 144.479 162.207C145.081 161.579 145.71 160.968 146.298 160.331C146.941 159.635 146.82 159.637 147.405 159.643C148.01 159.645 148.614 159.645 149.219 159.645C150.277 159.645 163.176 159.717 163.841 159.629C164.921 159.489 165.346 158.145 164.563 157.432C163.967 156.892 162.231 157.103 161.255 157.103L139.386 157.1C137.957 157.103 137.451 156.903 136.663 156.148C133.915 153.529 133.77 152.432 129.473 152.432C127.036 152.432 124.593 152.424 122.156 152.432C118.235 152.445 117.249 155.397 115.359 156.617C114.414 157.229 113.521 157.1 112.243 157.1C109.847 157.1 105.1 157.1 105.001 157.1C104.457 155.246 102.74 153.894 100.704 153.894C98.2283 153.894 96.2254 155.893 96.2254 158.365C96.2254 160.836 98.2283 162.835 100.704 162.835C102.737 162.835 104.449 161.489 104.998 159.64C105.002 159.642 105.005 159.643 105.009 159.643C105.028 159.643 108.996 159.648 110.985 159.648C112.977 159.648 114.757 159.837 116.32 158.995C117.378 158.422 118.612 157.045 119.475 156.173C120.903 154.722 121.648 154.983 124.203 154.983C126.195 154.983 128.19 154.988 130.181 154.983C132.289 154.977 132.671 155.737 134.047 157.111C134.965 158.03 135.792 159.083 137.635 159.5C139.248 159.868 141.603 159.514 143.364 159.662C143.232 159.95 142.361 160.718 142.086 160.995C141.27 161.823 139.026 164.429 138.146 164.832C137.069 165.32 134.597 165.128 133.25 165.128C131.525 165.128 128.047 165.134 128.016 165.134C128.015 165.134 128.014 165.134 128.014 165.134C127.525 163.197 125.769 161.766 123.673 161.766C121.197 161.766 119.194 163.765 119.194 166.237C119.194 168.708 121.197 170.707 123.673 170.707C125.656 170.707 127.338 169.424 127.926 167.641C127.928 167.641 127.929 167.641 127.931 167.641C127.967 167.641 132.852 167.646 135.295 167.646ZM98.7091 158.351C98.7091 157.259 99.6103 156.387 100.701 156.387C101.718 156.387 102.638 157.21 102.638 158.334C102.638 159.33 101.968 160.331 100.753 160.331C99.5664 160.331 98.7091 159.443 98.7091 158.351ZM121.678 166.223C121.678 165.131 122.579 164.259 123.67 164.259C124.687 164.259 125.607 165.082 125.607 166.206C125.607 167.202 124.937 168.203 123.722 168.203C122.535 168.203 121.678 167.315 121.678 166.223Z" fill="#00B1FE"/>
<path fill-rule="evenodd" clip-rule="evenodd" d="M159.681 151.968H169.437C170.506 151.968 171.471 151.946 171.578 150.838C171.707 149.489 170.47 149.426 169.674 149.428L146.812 149.426C146.81 149.426 146.808 149.426 146.806 149.426C146.359 147.429 144.576 145.939 142.438 145.939C139.963 145.939 137.96 147.939 137.96 150.41C137.96 152.882 139.963 154.881 142.438 154.881C144.364 154.881 146.004 153.672 146.639 151.968C146.757 151.968 155.423 151.968 159.681 151.968ZM140.443 150.397C140.443 149.305 141.344 148.433 142.435 148.433C143.452 148.433 144.372 149.256 144.372 150.38C144.372 151.376 143.702 152.377 142.487 152.377C141.301 152.377 140.443 151.488 140.443 150.397Z" fill="#00B1FE"/>
<path d="M75 657C75 641.536 87.536 629 103 629H290C305.464 629 318 641.536 318 657V663C318 678.464 305.464 691 290 691H103C87.536 691 75 678.464 75 663V657Z" fill="#4F5152"/>
<path d="M110.871 670V646.727H120.575C122.318 646.727 123.776 646.973 124.95 647.466C126.132 647.958 127.018 648.648 127.609 649.534C128.208 650.42 128.507 651.447 128.507 652.614C128.507 653.5 128.321 654.292 127.95 654.989C127.579 655.678 127.068 656.25 126.416 656.705C125.765 657.159 125.011 657.477 124.155 657.659V657.886C125.094 657.932 125.962 658.186 126.757 658.648C127.56 659.11 128.204 659.754 128.689 660.58C129.174 661.398 129.416 662.367 129.416 663.489C129.416 664.739 129.098 665.856 128.462 666.841C127.825 667.818 126.905 668.591 125.7 669.159C124.496 669.72 123.034 670 121.314 670H110.871ZM116.496 665.466H119.973C121.193 665.466 122.09 665.235 122.666 664.773C123.25 664.311 123.541 663.667 123.541 662.841C123.541 662.242 123.401 661.727 123.121 661.295C122.84 660.856 122.443 660.519 121.928 660.284C121.412 660.042 120.795 659.92 120.075 659.92H116.496V665.466ZM116.496 656.295H119.609C120.223 656.295 120.768 656.193 121.246 655.989C121.723 655.784 122.094 655.489 122.359 655.102C122.632 654.716 122.768 654.25 122.768 653.705C122.768 652.924 122.492 652.311 121.939 651.864C121.386 651.417 120.64 651.193 119.7 651.193H116.496V656.295ZM143.382 662.466V652.545H148.928V670H143.632V666.75H143.45C143.064 667.818 142.405 668.667 141.473 669.295C140.549 669.917 139.431 670.227 138.121 670.227C136.931 670.227 135.886 669.955 134.984 669.409C134.083 668.864 133.382 668.102 132.882 667.125C132.382 666.14 132.128 664.989 132.121 663.67V652.545H137.678V662.58C137.685 663.527 137.935 664.273 138.428 664.818C138.92 665.364 139.59 665.636 140.439 665.636C140.992 665.636 141.488 665.515 141.928 665.273C142.375 665.023 142.727 664.663 142.984 664.193C143.25 663.716 143.382 663.14 143.382 662.466ZM137.018 650.33C136.306 650.33 135.696 650.087 135.189 649.602C134.689 649.117 134.439 648.534 134.439 647.852C134.439 647.17 134.689 646.591 135.189 646.114C135.696 645.629 136.306 645.386 137.018 645.386C137.723 645.386 138.321 645.629 138.814 646.114C139.314 646.591 139.564 647.17 139.564 647.852C139.564 648.534 139.314 649.117 138.814 649.602C138.321 650.087 137.723 650.33 137.018 650.33ZM144.109 650.33C143.397 650.33 142.787 650.087 142.28 649.602C141.78 649.117 141.53 648.534 141.53 647.852C141.53 647.17 141.78 646.591 142.28 646.114C142.787 645.629 143.397 645.386 144.109 645.386C144.814 645.386 145.412 645.629 145.905 646.114C146.405 646.591 146.655 647.17 146.655 647.852C146.655 648.534 146.405 649.117 145.905 649.602C145.412 650.087 144.814 650.33 144.109 650.33ZM152.464 670V652.545H157.862V655.727H158.044C158.362 654.576 158.881 653.72 159.601 653.159C160.321 652.591 161.158 652.307 162.112 652.307C162.37 652.307 162.635 652.326 162.908 652.364C163.18 652.394 163.434 652.443 163.669 652.511V657.341C163.404 657.25 163.055 657.178 162.624 657.125C162.199 657.072 161.821 657.045 161.487 657.045C160.828 657.045 160.233 657.193 159.703 657.489C159.18 657.777 158.768 658.182 158.464 658.705C158.169 659.22 158.021 659.826 158.021 660.523V670H152.464ZM173.175 670.33C171.341 670.33 169.766 669.955 168.447 669.205C167.137 668.447 166.125 667.394 165.413 666.045C164.709 664.689 164.357 663.117 164.357 661.33C164.357 659.534 164.709 657.962 165.413 656.614C166.125 655.258 167.137 654.205 168.447 653.455C169.766 652.697 171.341 652.318 173.175 652.318C175.008 652.318 176.58 652.697 177.891 653.455C179.209 654.205 180.22 655.258 180.925 656.614C181.637 657.962 181.993 659.534 181.993 661.33C181.993 663.117 181.637 664.689 180.925 666.045C180.22 667.394 179.209 668.447 177.891 669.205C176.58 669.955 175.008 670.33 173.175 670.33ZM173.209 666.136C173.875 666.136 174.44 665.932 174.902 665.523C175.364 665.114 175.716 664.545 175.959 663.818C176.209 663.091 176.334 662.25 176.334 661.295C176.334 660.326 176.209 659.477 175.959 658.75C175.716 658.023 175.364 657.455 174.902 657.045C174.44 656.636 173.875 656.432 173.209 656.432C172.519 656.432 171.936 656.636 171.459 657.045C170.989 657.455 170.629 658.023 170.379 658.75C170.137 659.477 170.016 660.326 170.016 661.295C170.016 662.25 170.137 663.091 170.379 663.818C170.629 664.545 170.989 665.114 171.459 665.523C171.936 665.932 172.519 666.136 173.209 666.136ZM184.839 670V652.545H190.237V655.727H190.419C190.737 654.576 191.256 653.72 191.976 653.159C192.696 652.591 193.533 652.307 194.487 652.307C194.745 652.307 195.01 652.326 195.283 652.364C195.555 652.394 195.809 652.443 196.044 652.511V657.341C195.779 657.25 195.43 657.178 194.999 657.125C194.574 657.072 194.196 657.045 193.862 657.045C193.203 657.045 192.608 657.193 192.078 657.489C191.555 657.777 191.143 658.182 190.839 658.705C190.544 659.22 190.396 659.826 190.396 660.523V670H184.839ZM202.572 670.295C201.459 670.295 200.47 670.11 199.607 669.739C198.75 669.36 198.072 668.792 197.572 668.034C197.08 667.269 196.834 666.311 196.834 665.159C196.834 664.189 197.004 663.371 197.345 662.705C197.686 662.038 198.156 661.496 198.754 661.08C199.353 660.663 200.042 660.348 200.822 660.136C201.603 659.917 202.436 659.769 203.322 659.693C204.315 659.602 205.114 659.508 205.72 659.409C206.326 659.303 206.766 659.155 207.038 658.966C207.319 658.769 207.459 658.492 207.459 658.136V658.08C207.459 657.496 207.258 657.045 206.857 656.727C206.455 656.409 205.913 656.25 205.232 656.25C204.497 656.25 203.906 656.409 203.459 656.727C203.012 657.045 202.728 657.485 202.607 658.045L197.482 657.864C197.633 656.803 198.023 655.856 198.652 655.023C199.288 654.182 200.16 653.523 201.266 653.045C202.379 652.561 203.716 652.318 205.277 652.318C206.391 652.318 207.417 652.451 208.357 652.716C209.296 652.973 210.114 653.352 210.811 653.852C211.508 654.345 212.046 654.951 212.425 655.67C212.811 656.39 213.004 657.212 213.004 658.136V670H207.777V667.568H207.641C207.33 668.159 206.932 668.659 206.447 669.068C205.97 669.477 205.406 669.784 204.754 669.989C204.11 670.193 203.383 670.295 202.572 670.295ZM204.288 666.659C204.887 666.659 205.425 666.538 205.902 666.295C206.387 666.053 206.773 665.72 207.061 665.295C207.349 664.864 207.493 664.364 207.493 663.795V662.136C207.334 662.22 207.141 662.295 206.913 662.364C206.694 662.432 206.451 662.496 206.186 662.557C205.921 662.617 205.648 662.67 205.368 662.716C205.088 662.761 204.819 662.803 204.561 662.841C204.038 662.924 203.591 663.053 203.22 663.227C202.857 663.402 202.576 663.629 202.379 663.909C202.19 664.182 202.095 664.508 202.095 664.886C202.095 665.462 202.3 665.902 202.709 666.205C203.125 666.508 203.652 666.659 204.288 666.659ZM201.936 650.33C201.224 650.33 200.614 650.087 200.107 649.602C199.607 649.117 199.357 648.534 199.357 647.852C199.357 647.17 199.607 646.591 200.107 646.114C200.614 645.629 201.224 645.386 201.936 645.386C202.641 645.386 203.239 645.629 203.732 646.114C204.232 646.591 204.482 647.17 204.482 647.852C204.482 648.534 204.232 649.117 203.732 649.602C203.239 650.087 202.641 650.33 201.936 650.33ZM209.027 650.33C208.315 650.33 207.705 650.087 207.197 649.602C206.697 649.117 206.447 648.534 206.447 647.852C206.447 647.17 206.697 646.591 207.197 646.114C207.705 645.629 208.315 645.386 209.027 645.386C209.732 645.386 210.33 645.629 210.822 646.114C211.322 646.591 211.572 647.17 211.572 647.852C211.572 648.534 211.322 649.117 210.822 649.602C210.33 650.087 209.732 650.33 209.027 650.33ZM227.663 662.466V652.545H233.209V670H227.913V666.75H227.732C227.345 667.818 226.686 668.667 225.754 669.295C224.83 669.917 223.713 670.227 222.402 670.227C221.213 670.227 220.167 669.955 219.266 669.409C218.364 668.864 217.663 668.102 217.163 667.125C216.663 666.14 216.41 664.989 216.402 663.67V652.545H221.959V662.58C221.966 663.527 222.216 664.273 222.709 664.818C223.201 665.364 223.872 665.636 224.72 665.636C225.273 665.636 225.769 665.515 226.209 665.273C226.656 665.023 227.008 664.663 227.266 664.193C227.531 663.716 227.663 663.14 227.663 662.466ZM236.746 670V652.545H242.03V655.75H242.223C242.587 654.689 243.2 653.852 244.064 653.239C244.928 652.625 245.958 652.318 247.155 652.318C248.367 652.318 249.405 652.629 250.268 653.25C251.132 653.871 251.681 654.705 251.916 655.75H252.098C252.424 654.712 253.06 653.883 254.007 653.261C254.954 652.633 256.071 652.318 257.359 652.318C259.011 652.318 260.352 652.848 261.382 653.909C262.412 654.962 262.928 656.409 262.928 658.25V670H257.371V659.523C257.371 658.652 257.147 657.989 256.7 657.534C256.253 657.072 255.674 656.841 254.962 656.841C254.196 656.841 253.594 657.091 253.155 657.591C252.723 658.083 252.507 658.746 252.507 659.58V670H247.166V659.466C247.166 658.655 246.946 658.015 246.507 657.545C246.068 657.076 245.488 656.841 244.768 656.841C244.284 656.841 243.856 656.958 243.484 657.193C243.113 657.42 242.821 657.746 242.609 658.17C242.405 658.595 242.303 659.095 242.303 659.67V670H236.746ZM274.53 670.33C272.704 670.33 271.128 669.97 269.803 669.25C268.484 668.523 267.469 667.489 266.757 666.148C266.053 664.799 265.7 663.197 265.7 661.341C265.7 659.538 266.056 657.962 266.768 656.614C267.481 655.258 268.484 654.205 269.78 653.455C271.075 652.697 272.602 652.318 274.359 652.318C275.602 652.318 276.738 652.511 277.768 652.898C278.799 653.284 279.689 653.856 280.439 654.614C281.189 655.371 281.772 656.307 282.189 657.42C282.606 658.527 282.814 659.795 282.814 661.227V662.614H267.643V659.386H277.643C277.636 658.795 277.496 658.269 277.223 657.807C276.95 657.345 276.575 656.985 276.098 656.727C275.628 656.462 275.087 656.33 274.473 656.33C273.852 656.33 273.295 656.47 272.803 656.75C272.31 657.023 271.92 657.398 271.632 657.875C271.344 658.345 271.193 658.879 271.178 659.477V662.761C271.178 663.473 271.318 664.098 271.598 664.636C271.878 665.167 272.276 665.58 272.791 665.875C273.306 666.17 273.92 666.318 274.632 666.318C275.125 666.318 275.571 666.25 275.973 666.114C276.375 665.977 276.719 665.777 277.007 665.511C277.295 665.246 277.511 664.92 277.655 664.534L282.757 664.682C282.545 665.826 282.079 666.822 281.359 667.67C280.647 668.511 279.712 669.167 278.553 669.636C277.393 670.098 276.053 670.33 274.53 670.33Z" fill="white"/>
</g>
<rect width="144" height="5" rx="2.5" transform="matrix(-1 0 0 1 269 839)" fill="black"/>
<rect width="393" height="50" fill="white"/>
<path d="M59.5166 25.7231C58.6589 25.7231 57.8924 25.9058 57.2173 26.271C56.5477 26.6307 56.022 27.1287 55.6401 27.7651C55.2638 28.396 55.0757 29.1182 55.0757 29.9316V29.9482C55.0757 30.7008 55.2417 31.376 55.5737 31.9736C55.9113 32.5713 56.3734 33.0417 56.96 33.3848C57.5465 33.7279 58.2217 33.8994 58.9854 33.8994C59.5387 33.8994 60.0202 33.8164 60.4297 33.6504C60.8447 33.4844 61.1934 33.2658 61.4756 32.9946C61.7578 32.7235 61.9709 32.4302 62.1147 32.1147H62.4053V29.9067H61.9072V29.9233C61.9072 30.3716 61.8021 30.7728 61.5918 31.127C61.3815 31.4811 61.0965 31.7578 60.7368 31.957C60.3771 32.1562 59.9704 32.2559 59.5166 32.2559C59.0628 32.2559 58.6589 32.1535 58.3047 31.9487C57.9505 31.744 57.6711 31.4645 57.4663 31.1104C57.2616 30.7507 57.1592 30.3384 57.1592 29.8735V29.8569C57.1592 29.4087 57.2671 29.0047 57.4829 28.645C57.6987 28.2798 57.9865 27.992 58.3462 27.7817C58.7059 27.5715 59.1016 27.4663 59.5332 27.4663C59.9814 27.4663 60.3826 27.5742 60.7368 27.79C61.0965 28.0059 61.3815 28.2992 61.5918 28.6699C61.8021 29.0407 61.9072 29.453 61.9072 29.9067L62.2808 31.9072C62.2808 31.9847 62.2808 32.0649 62.2808 32.1479C62.2808 32.2254 62.278 32.3057 62.2725 32.3887C62.2448 33.1523 62.1286 33.8496 61.9238 34.4805C61.7246 35.1058 61.423 35.6066 61.019 35.9829C60.6206 36.3537 60.106 36.5391 59.4751 36.5391C59.1265 36.5391 58.811 36.4837 58.5288 36.373C58.2521 36.2568 58.0142 36.0936 57.8149 35.8833C57.6213 35.673 57.4718 35.4295 57.3667 35.1528L57.3335 35.0698H55.2334L55.25 35.1611C55.3828 35.7699 55.6401 36.3122 56.022 36.7881C56.4093 37.2585 56.8963 37.6292 57.4829 37.9004C58.075 38.166 58.7391 38.2988 59.4751 38.2988C60.4767 38.2988 61.3372 38.0443 62.0566 37.5352C62.7816 37.0205 63.3377 36.2845 63.7251 35.3271C64.1125 34.3698 64.3062 33.2188 64.3062 31.874V31.8574C64.3062 30.7728 64.1789 29.8459 63.9243 29.0767C63.6698 28.3019 63.3184 27.6683 62.8701 27.1758C62.4274 26.6777 61.9183 26.3125 61.3428 26.0801C60.7673 25.8421 60.1585 25.7231 59.5166 25.7231ZM68.0747 36.3896C68.4565 36.3896 68.772 36.2651 69.021 36.0161C69.27 35.7616 69.3945 35.4517 69.3945 35.0864C69.3945 34.7157 69.27 34.4058 69.021 34.1567C68.772 33.9022 68.4565 33.7749 68.0747 33.7749C67.6984 33.7749 67.383 33.9022 67.1284 34.1567C66.8794 34.4058 66.7549 34.7157 66.7549 35.0864C66.7549 35.4517 66.8794 35.7616 67.1284 36.0161C67.383 36.2651 67.6984 36.3896 68.0747 36.3896ZM68.0747 30.2305C68.4565 30.2305 68.772 30.106 69.021 29.8569C69.27 29.6024 69.3945 29.2925 69.3945 28.9272C69.3945 28.5565 69.27 28.2466 69.021 27.9976C68.772 27.743 68.4565 27.6157 68.0747 27.6157C67.6984 27.6157 67.383 27.743 67.1284 27.9976C66.8794 28.2466 66.7549 28.5565 66.7549 28.9272C66.7549 29.2925 66.8794 29.6024 67.1284 29.8569C67.383 30.106 67.6984 30.2305 68.0747 30.2305ZM77.6538 38H79.6958V35.7007H81.3145V33.9326H79.6958V26.022H76.6826C76.3506 26.5145 76.0186 27.0208 75.6865 27.541C75.36 28.0557 75.0308 28.5786 74.6987 29.1099C74.3722 29.6356 74.043 30.1696 73.7109 30.7119C73.3844 31.2487 73.0607 31.7882 72.7397 32.3306C72.4243 32.8729 72.1089 33.4124 71.7935 33.9492V35.7007H77.6538V38ZM73.7856 33.9824V33.8579C74.0181 33.4484 74.2588 33.0361 74.5078 32.6211C74.7568 32.2005 75.0086 31.7827 75.2632 31.3677C75.5177 30.9471 75.7751 30.5293 76.0352 30.1143C76.2952 29.6992 76.5526 29.2925 76.8071 28.894C77.0672 28.4956 77.319 28.1082 77.5625 27.7319H77.687V33.9824H73.7856ZM86.27 38H88.4033V26.022H86.27L83.1406 28.2217V30.2305L86.1206 28.1304H86.27V38Z" fill="black"/>
<path fill-rule="evenodd" clip-rule="evenodd" d="M301.115 27.033C301.115 26.4 300.638 25.8868 300.048 25.8868H298.982C298.393 25.8868 297.915 26.4 297.915 27.033V36.967C297.915 37.6 298.393 38.1132 298.982 38.1132H300.048C300.638 38.1132 301.115 37.6 301.115 36.967V27.033ZM293.681 28.3321H294.748C295.337 28.3321 295.814 28.8576 295.814 29.5058V36.9395C295.814 37.5877 295.337 38.1132 294.748 38.1132H293.681C293.092 38.1132 292.614 37.5877 292.614 36.9395V29.5058C292.614 28.8576 293.092 28.3321 293.681 28.3321ZM289.349 30.9811H288.283C287.693 30.9811 287.216 31.5133 287.216 32.1698V36.9245C287.216 37.581 287.693 38.1132 288.283 38.1132H289.349C289.938 38.1132 290.416 37.581 290.416 36.9245V32.1698C290.416 31.5133 289.938 30.9811 289.349 30.9811ZM284.048 33.4264H282.982C282.393 33.4264 281.915 33.951 281.915 34.5981V36.9415C281.915 37.5886 282.393 38.1132 282.982 38.1132H284.048C284.638 38.1132 285.115 37.5886 285.115 36.9415V34.5981C285.115 33.951 284.638 33.4264 284.048 33.4264Z" fill="black"/>
<path fill-rule="evenodd" clip-rule="evenodd" d="M316.686 28.3021C319.174 28.3022 321.566 29.2243 323.368 30.8778C323.504 31.0054 323.721 31.0038 323.854 30.8742L325.152 29.6107C325.22 29.545 325.257 29.4559 325.257 29.3632C325.256 29.2705 325.217 29.1819 325.149 29.1169C320.418 24.7422 312.954 24.7422 308.223 29.1169C308.155 29.1818 308.116 29.2704 308.115 29.3631C308.115 29.4558 308.152 29.5449 308.22 29.6107L309.518 30.8742C309.651 31.004 309.868 31.0056 310.004 30.8778C311.807 29.2242 314.199 28.3021 316.686 28.3021ZM316.683 32.5224C318.04 32.5223 319.349 33.0341 320.355 33.9582C320.491 34.0893 320.706 34.0865 320.839 33.9518L322.126 32.6325C322.194 32.5633 322.231 32.4694 322.23 32.3718C322.229 32.2743 322.19 32.1812 322.121 32.1134C319.057 29.2226 314.312 29.2226 311.248 32.1134C311.179 32.1812 311.14 32.2743 311.139 32.3719C311.138 32.4695 311.175 32.5634 311.243 32.6325L312.53 33.9518C312.663 34.0865 312.877 34.0893 313.013 33.9582C314.019 33.0347 315.327 32.523 316.683 32.5224ZM319.208 35.316C319.209 35.4213 319.172 35.5229 319.105 35.5967L316.928 38.0514C316.865 38.1236 316.778 38.1642 316.687 38.1642C316.596 38.1642 316.509 38.1236 316.445 38.0514L314.268 35.5967C314.201 35.5228 314.164 35.4212 314.166 35.3159C314.168 35.2105 314.209 35.1108 314.279 35.0401C315.669 33.7262 317.705 33.7262 319.095 35.0401C319.165 35.1108 319.206 35.2106 319.208 35.316Z" fill="black"/>
<rect opacity="0.35" x="332.757" y="26" width="24" height="12" rx="3.8" stroke="black"/>
<path opacity="0.4" d="M358.257 30.2811V34.3566C359.062 34.0114 359.585 33.2085 359.585 32.3189C359.585 31.4293 359.062 30.6263 358.257 30.2811Z" fill="black"/>
<rect x="334.257" y="27.5" width="21" height="9" rx="2.5" fill="black"/>
<defs>
<clipPath id="clip0_0_1">
<rect width="393" height="852" fill="white"/>
</clipPath>
</defs>
</svg>
